<svg width="41" height="19" fill="none" xmlns="http://www.w3.org/2000/svg"><path d="M7.128 6.368H2.256v3.3H6.6v.768H2.256V14h-.888V5.6h5.76v.768zM15.67 14h-.972l-1.92-2.7a5.98 5.98 0 01-.672.036H9.85V14h-.888V5.6h3.144c2.136 0 3.432 1.08 3.432 2.88 0 1.32-.696 2.244-1.92 2.64L15.67 14zm-3.588-3.42c1.68 0 2.568-.78 2.568-2.1 0-1.344-.888-2.112-2.568-2.112H9.85v4.212h2.232z" fill="#C5E9FF"/><path d="M25.256 13.232h5.052V14h-5.94V5.6h5.76v.768h-4.872v2.988H29.6v.756h-4.344v3.12zM38.539 5.6h.876V14h-.732l-5.4-6.816V14h-.888V5.6h.732l5.412 6.816V5.6z" fill="#C7C7C7"/></svg>